<?xml version="1.0" encoding="iso-8859-1"?>
<!-- Generator: Adobe Illustrator 16.0.0, SVG Export Plug-In . SVG Version: 6.00 Build 0)  -->
<!DOCTYPE svg PUBLIC "-//W3C//DTD SVG 1.1//EN" "http://www.w3.org/Graphics/SVG/1.1/DTD/svg11.dtd">
<svg version="1.1" id="Capa_1" xmlns="http://www.w3.org/2000/svg" xmlns:xlink="http://www.w3.org/1999/xlink" x="0px" y="0px"
	 width="489px" height="489px" viewBox="0 0 489 489" style="enable-background:new 0 0 489 489;" xml:space="preserve">
<g>
	<g>
		<path d="M0,489h489V0H0V489z M161.367,244.827c-13.228-6.42-24.387-16.719-34.087-30.895
			c-9.706-14.175-14.403-31.439-14.403-51.801c0-27.878,9.208-51.178,28.694-69.894c19.483-18.714,47.985-29.087,86.446-31.128
			V38.461h35.713v22.647c35.713,2.195,61.755,10.489,80.302,24.887c18.545,14.401,30.584,34.123,36.219,59.161l-87.36,13.852
			c-4.385-11.113-8.242-18.818-11.764-23.126c-3.521-4.299-9.154-8.646-17.396-13.028v67.919
			c46.702,12.692,79.246,26.085,95.21,40.181c21.129,18.953,31.64,42.996,31.64,72.125c0,17.073-3.824,32.737-11.414,46.991
			c-7.594,14.256-17.311,26.158-29.126,35.709c-11.819,9.557-24.28,16.486-37.579,20.795c-13.305,4.303-29.501,6.849-48.73,7.635
			v44.573h-35.712v-44.579c-21.977-2.035-41.06-5.753-55.38-11.152c-14.321-5.398-26.381-12.875-36.788-22.421
			c-10.409-9.544-18.277-19.837-23.911-30.873c-5.635-11.032-9.783-24.376-12.602-40.028l94.886-11.033
			c2.818,15.494,6.019,26.687,10.796,33.57c4.772,6.891,12.014,12.994,23.002,18.312V267.62
			C197.798,258.85,174.589,251.252,161.367,244.827z"/>
		<path d="M228.017,121.681c-8.241,3.305-16.373,7.396-20.282,12.272c-3.915,4.874-5.563,10.615-5.563,17.216
			c0,6.923,1.525,12.939,5.494,18.049c3.97,5.112,12.11,9.39,20.351,12.829V121.681z"/>
		<path d="M292.852,338.207c6.181-6.829,9.166-14.48,9.166-22.962c0-7.382-2.506-14.17-7.738-20.375
			c-5.229-6.198-16.812-11.961-30.549-17.286v75.344C277.467,349.945,286.667,345.036,292.852,338.207z"/>
	</g>
</g>
<g>
</g>
<g>
</g>
<g>
</g>
<g>
</g>
<g>
</g>
<g>
</g>
<g>
</g>
<g>
</g>
<g>
</g>
<g>
</g>
<g>
</g>
<g>
</g>
<g>
</g>
<g>
</g>
<g>
</g>
</svg>
